<?xml version="1.0" standalone="no"?>
<!DOCTYPE svg PUBLIC "-//W3C//DTD SVG 1.1//EN" "http://www.w3.org/Graphics/SVG/1.1/DTD/svg11.dtd">

<svg width="135" height="50" viewBox="0 0 135 50" 
  xmlns="http://www.w3.org/2000/svg"
  xmlns:xlink="http://www.w3.org/1999/xlink">


<polyline points="0.0, 40.81884175553323 0.7988165680473372, 39.506008326734445 1.5976331360946745, 39.40209372279493 2.396449704142012, 37.85803388848815 3.195266272189349, 37.65325191571365 3.994082840236686, 37.80386333366045 4.792899408284024, 43.844658950379106 5.591715976331361, 44.2586046656992 6.390532544378698, 43.68044553337753 7.189349112426036, 43.94317327093354 7.988165680473372, 44.83420119893139 8.78698224852071, 46.47864406927725 9.585798816568047, 45.45098310622813 10.384615384615385, 45.794254238282726 11.183431952662723, 43.33749310940333 11.982248520710058, 47.49830035246183 12.781065088757396, 49.615087857191796 13.579881656804734, 50.0 14.378698224852071, 49.84571412543206 15.177514792899409, 49.85045646310109 15.976331360946745, 47.61575723477161 16.775147928994084, 48.24699328538198 17.57396449704142, 47.004860893663036 18.37278106508876, 47.56856814448564 19.171597633136095, 46.917937885080406 19.970414201183434, 46.44172915687454 20.76923076923077, 49.33837032868359 21.56804733727811, 46.47742227599091 22.366863905325445, 47.213145491573485 23.16568047337278, 48.02081030322666 23.964497041420117, 47.37020559715744 24.763313609467456, 46.21057512798228 25.562130177514792, 45.873259964485385 26.36094674556213, 46.161611564352285 27.159763313609467, 41.585535133854265 27.958579881656807, 42.585440751364764 28.757396449704142, 43.558825611832354 29.55621301775148, 43.38239877697694 30.355029585798817, 41.15819516696534 31.153846153846157, 40.81797156826471 31.95266272189349, 35.98730738970447 32.751479289940825, 35.14170591780229 33.55029585798817, 35.37511124849531 34.349112426035504, 33.64794552359848 35.14792899408284, 34.13122581890491 35.94674556213018, 35.137949577848076 36.74556213017752, 36.369991294807456 37.54437869822485, 36.254258993976194 38.34319526627219, 40.50961137018989 39.142011834319526, 40.764072829798096 39.94082840236687, 40.465276438183956 40.7396449704142, 41.469787753282155 41.53846153846154, 42.63946883797417 42.337278106508876, 39.79067941964813 43.13609467455622, 39.03491876116488 43.93491124260355, 37.78265658571472 44.73372781065089, 38.70206659839096 45.532544378698226, 38.33709389878378 46.33136094674556, 34.2323702226011 47.1301775147929, 36.254985472968386 47.928994082840234, 37.27661769254039 48.72781065088758, 38.53963735756981 49.52662721893491, 39.68796589913482 50.32544378698225, 36.458898403175006 51.124260355029584, 37.47276316353548 51.92307692307693, 31.0637621308049 52.72189349112426, 32.652363215473784 53.5207100591716, 32.45593881878908 54.319526627218934, 34.185390190879374 55.11834319526627, 35.051963802067675 55.91715976331361, 34.20274571845286 56.71597633136094, 35.38751311993573 57.514792899408285, 37.00468344967276 58.31360946745562, 37.61596823647687 59.11242603550296, 37.63597866482119 59.91124260355029, 37.145514831025594 60.710059171597635, 36.87856164630728 61.50887573964497, 37.15694710068928 62.307692307692314, 34.44393003569609 63.10650887573964, 35.476731573774195 63.90532544378698, 35.3088871932397 64.70414201183432, 30.828370407354434 65.50295857988165, 33.27778731588801 66.30177514792899, 33.135477516237295 67.10059171597634, 34.03482222714333 67.89940828402366, 36.39690398222379 68.69822485207101, 37.74973903169726 69.49704142011834, 36.38659335997323 70.29585798816568, 36.75598814693091 71.09467455621302, 37.051229629025684 71.89349112426036, 30.699107429042137 72.6923076923077, 40.63708473126578 73.49112426035504, 42.03551114985758 74.28994082840237, 39.11144846802242 75.0887573964497, 39.5207856793197 75.88757396449704, 38.29726448862652 76.68639053254438, 39.07835635755518 77.48520710059172, 39.96348289505885 78.28402366863905, 40.20124403635358 79.0828402366864, 40.90995447793047 79.88165680473374, 40.78937360005829 80.68047337278107, 41.826485942876474 81.4792899408284, 37.964672665434875 82.27810650887574, 37.75103280038339 83.07692307692308, 38.4360569839915 83.87573964497041, 37.139483558715256 84.67455621301775, 34.207624020850865 85.4733727810651, 35.31294870576357 86.27218934911244, 34.64584131475143 87.07100591715975, 32.97413400289175 87.8698224852071, 35.970022747780575 88.66863905325444, 36.60330121899261 89.46745562130178, 38.4040700316938 90.26627218934911, 39.19338102532421 91.06508875739645, 39.885090144617735 91.8639053254438, 40.64393301666263 92.66272189349112, 40.310982412364076 93.46153846153845, 40.88307251589887 94.2603550295858, 40.48304773480298 95.05917159763314, 40.41793192722748 95.85798816568047, 38.88769043330282 96.65680473372781, 38.803446772703786 97.45562130177515, 39.27652541999015 98.2544378698225, 39.769183963098776 99.05325443786982, 39.444210170654856 99.85207100591715, 39.41007770442361 100.6508875739645, 38.5021509384139 101.44970414201183, 34.58890801690447 102.24852071005917, 32.78313771320626 103.04733727810651, 32.49005980215095 103.84615384615385, 33.21650087152856 104.64497041420118, 30.370142697738135 105.44378698224853, 34.708809374636736 106.24260355029585, 31.939278401459525 107.0414201183432, 28.306988880400684 107.84023668639053, 25.534682373852768 108.63905325443787, 30.053517674841434 109.43786982248521, 27.422655586686496 110.23668639053254, 22.667408078694965 111.03550295857988, 21.32252323524107 111.83431952662723, 22.5837816686727 112.63313609467457, 24.356948700239162 113.43195266272188, 25.202036309318192 114.23076923076923, 25.67582403192517 115.02958579881657, 27.03706381096651 115.82840236686391, 26.723632308223916 116.62721893491124, 27.049034275730982 117.42603550295858, 27.605692037996942 118.22485207100593, 23.221582537522632 119.02366863905324, 21.22395970611487 119.82248520710058, 19.005435578554437 120.62130177514793, 14.956780354272563 121.42011834319527, 17.298670066848786 122.2189349112426, 22.410799584012345 123.01775147928994, 27.32534992760039 123.81656804733728, 23.43532988511573 124.61538461538463, 13.180756603861484 125.41420118343194, 14.957201949038138 126.21301775147928, 19.005448228323115 127.01183431952663, 23.098156859466343 127.81065088757396, 17.8928324228291 128.60946745562129, 7.975833890121916 129.40828402366864, 4.4523805367133065 130.20710059171597, 4.974997727775916 131.0059171597633, 4.885527720129821 131.80473372781066, 11.64622063509359 132.60355029585799, 15.026437708817028 133.40236686390534, 8.225503367273799 134.20118343195267, 0.0" fill="none" stroke="#57bd0f" stroke-width="1.25"/>

</svg>