<?xml version="1.0" standalone="no"?>
<!DOCTYPE svg PUBLIC "-//W3C//DTD SVG 1.1//EN" "http://www.w3.org/Graphics/SVG/1.1/DTD/svg11.dtd">

<svg width="135" height="50" viewBox="0 0 135 50" 
  xmlns="http://www.w3.org/2000/svg"
  xmlns:xlink="http://www.w3.org/1999/xlink">


<polyline points="0.0, 38.46285827443124 0.7988165680473372, 36.999613791237 1.5976331360946745, 34.610811971843034 2.396449704142012, 33.39905072466189 3.195266272189349, 30.30756773287422 3.994082840236686, 32.33064108288622 4.792899408284024, 38.71813671004896 5.591715976331361, 41.377249932201956 6.390532544378698, 50.0 7.189349112426036, 43.36237497922465 7.988165680473372, 47.25838641200434 8.78698224852071, 44.06374266809273 9.585798816568047, 38.550322518568514 10.384615384615385, 41.533177015727496 11.183431952662723, 40.443747783486664 11.982248520710058, 43.63000364721528 12.781065088757396, 43.72474129128902 13.579881656804734, 46.43792824726294 14.378698224852071, 48.72859863761507 15.177514792899409, 45.01870589865934 15.976331360946745, 44.060942139360264 16.775147928994084, 43.19965049331698 17.57396449704142, 47.730620945187866 18.37278106508876, 46.07407341899536 19.171597633136095, 46.52592944202917 19.970414201183434, 48.00906513863457 20.76923076923077, 47.8223124923701 21.56804733727811, 45.554298000950915 22.366863905325445, 44.354957805012056 23.16568047337278, 43.68504970597342 23.964497041420117, 42.00148809161781 24.763313609467456, 39.70740243284476 25.562130177514792, 39.95701180631251 26.36094674556213, 41.67426735402046 27.159763313609467, 40.468205187882525 27.958579881656807, 41.530177549494 28.757396449704142, 44.121484342125385 29.55621301775148, 42.27840347361589 30.355029585798817, 42.51253775821493 31.153846153846157, 41.0476660591125 31.95266272189349, 40.44583134893569 32.751479289940825, 40.746420232433195 33.55029585798817, 39.84389445353956 34.349112426035504, 37.90029420054456 35.14792899408284, 37.183600715862795 35.94674556213018, 39.80464145812791 36.74556213017752, 39.10730738835848 37.54437869822485, 39.54651076186234 38.34319526627219, 40.06894833352227 39.142011834319526, 38.97235483651057 39.94082840236687, 37.03101697100774 40.7396449704142, 38.143116201825414 41.53846153846154, 36.87232698814566 42.337278106508876, 37.189916265228895 43.13609467455622, 38.52797136150933 43.93491124260355, 38.35236671968256 44.73372781065089, 38.187373213129625 45.532544378698226, 37.94767478087697 46.33136094674556, 37.298337806177635 47.1301775147929, 38.2798814494871 47.928994082840234, 38.61870063235921 48.72781065088758, 41.315614877469926 49.52662721893491, 42.235523281427604 50.32544378698225, 40.43586032043243 51.124260355029584, 39.25582861594735 51.92307692307693, 38.41066927706574 52.72189349112426, 36.02668423990739 53.5207100591716, 34.72525197415068 54.319526627218934, 35.45128028255286 55.11834319526627, 33.61758965873156 55.91715976331361, 34.14149933032877 56.71597633136094, 35.301662323524546 57.514792899408285, 35.63057414452756 58.31360946745562, 37.45506569283326 59.11242603550296, 35.91967854125521 59.91124260355029, 35.886914999458234 60.710059171597635, 33.66476270381184 61.50887573964497, 29.478716029112235 62.307692307692314, 28.73780316287154 63.10650887573964, 32.15800842761424 63.90532544378698, 31.203339055046147 64.70414201183432, 31.278185836108225 65.50295857988165, 28.703950725594 66.30177514792899, 29.634543978762423 67.10059171597634, 31.476547386154653 67.89940828402366, 32.283424566146216 68.69822485207101, 33.23983705871287 69.49704142011834, 33.793435778332146 70.29585798816568, 32.17461321403125 71.09467455621302, 34.20017151621354 71.89349112426036, 37.87339362512576 72.6923076923077, 38.988451347872164 73.49112426035504, 36.681508077886605 74.28994082840237, 37.02895641424768 75.0887573964497, 36.96613240239496 75.88757396449704, 39.202039728055404 76.68639053254438, 40.10038296788636 77.48520710059172, 39.547545367175836 78.28402366863905, 40.83978854556609 79.0828402366864, 38.59858571433257 79.88165680473374, 37.49257425235816 80.68047337278107, 36.91288772568075 81.4792899408284, 30.28812715427678 82.27810650887574, 24.32225884202189 83.07692307692308, 23.541067285235805 83.87573964497041, 21.24750633763948 84.67455621301775, 18.85176629305807 85.4733727810651, 11.313537326984013 86.27218934911244, 7.140779077521866 87.07100591715975, 4.32004562561669 87.8698224852071, 4.675040643087922 88.66863905325444, 6.122138313350212 89.46745562130178, 10.401198036283569 90.26627218934911, 8.53194368270678 91.06508875739645, 8.918644269229834 91.8639053254438, 5.19408073802494 92.66272189349112, 5.248024234196399 93.46153846153845, 3.648898231728728 94.2603550295858, 8.264345148253488 95.05917159763314, 7.144609338201844 95.85798816568047, 3.8705903648759366 96.65680473372781, 5.1870779574318915 97.45562130177515, 7.030247239286326 98.2544378698225, 7.935928254721833 99.05325443786982, 8.726249183982413 99.85207100591715, 6.839052666192945 100.6508875739645, 7.385271061883904 101.44970414201183, 5.424467744272377 102.24852071005917, 4.603976678395554 103.04733727810651, 5.134141801130855 103.84615384615385, 7.8118733727740555 104.64497041420118, 7.681039470200162 105.44378698224853, 6.70733435195823 106.24260355029585, 5.391201793476365 107.0414201183432, 7.440492277064088 107.84023668639053, 7.216613395470044 108.63905325443787, 6.048416199087207 109.43786982248521, 5.498785255539914 110.23668639053254, 5.462412212806903 111.03550295857988, 0.0 111.83431952662723, 3.870538885596936 112.63313609467457, 6.912027871906193 113.43195266272188, 7.330113145446821 114.23076923076923, 6.170427171318802 115.02958579881657, 5.348639103395257 115.82840236686391, 7.407325478748546 116.62721893491124, 7.79158917755956 117.42603550295858, 8.200239647179904 118.22485207100593, 8.608354631789362 119.02366863905324, 6.604142905780715 119.82248520710058, 7.079367445796057 120.62130177514793, 7.717898021501908 121.42011834319527, 5.356292931652045 122.2189349112426, 8.48955470908653 123.01775147928994, 12.168107044099775 123.81656804733728, 14.63470559858131 124.61538461538463, 13.82405338552708 125.41420118343194, 17.18744668388411 126.21301775147928, 16.332397179867716 127.01183431952663, 16.318523028056894 127.81065088757396, 14.313400461918487 128.60946745562129, 14.780256267486664 129.40828402366864, 16.823163096695627 130.20710059171597, 18.256214198567513 131.0059171597633, 19.402671332397677 131.80473372781066, 19.88425394375725 132.60355029585799, 17.992972299847228 133.40236686390534, 15.716429566439317 134.20118343195267, 11.519666377722478" fill="none" stroke="#57bd0f" stroke-width="1.25"/>

</svg>