<?xml version="1.0" standalone="no"?>
<!DOCTYPE svg PUBLIC "-//W3C//DTD SVG 1.1//EN" "http://www.w3.org/Graphics/SVG/1.1/DTD/svg11.dtd">

<svg width="135" height="50" viewBox="0 0 135 50" 
  xmlns="http://www.w3.org/2000/svg"
  xmlns:xlink="http://www.w3.org/1999/xlink">


<polyline points="0.0, 29.98864881252361 0.7988165680473372, 29.55052468922805 1.5976331360946745, 27.55446849917322 2.396449704142012, 29.102910573391917 3.195266272189349, 19.61487378738047 3.994082840236686, 30.34435380851244 4.792899408284024, 24.163562902534622 5.591715976331361, 28.05862261806163 6.390532544378698, 29.138667599352665 7.189349112426036, 27.37718074474438 7.988165680473372, 27.531769305227893 8.78698224852071, 27.87015171079333 9.585798816568047, 30.39432244563188 10.384615384615385, 27.768336906219364 11.183431952662723, 28.325171089512384 11.982248520710058, 27.98807683051376 12.781065088757396, 27.81008328951747 13.579881656804734, 28.24650855432002 14.378698224852071, 30.118114346845342 15.177514792899409, 28.14186830867963 15.976331360946745, 28.384093927783717 16.775147928994084, 28.72829537554552 17.57396449704142, 27.625448411149527 18.37278106508876, 28.653333522252932 19.171597633136095, 27.884239009819428 19.970414201183434, 28.3148157881976 20.76923076923077, 27.604006467892013 21.56804733727811, 27.04459131291025 22.366863905325445, 28.369983834373873 23.16568047337278, 26.559235675041077 23.964497041420117, 28.059640967823935 24.763313609467456, 29.19314269360882 25.562130177514792, 27.313714306892916 26.36094674556213, 27.094997328105496 27.159763313609467, 26.33642969725114 27.958579881656807, 27.114274184403108 28.757396449704142, 28.131702452815908 29.55621301775148, 23.790061808806627 30.355029585798817, 27.800703219212362 31.153846153846157, 29.05986720572385 31.95266272189349, 27.387683886900938 32.751479289940825, 29.15898508059612 33.55029585798817, 26.979036177800943 34.349112426035504, 27.717816940340683 35.14792899408284, 27.938726840019473 35.94674556213018, 28.577057109416387 36.74556213017752, 28.168023820527793 37.54437869822485, 27.07022375108809 38.34319526627219, 29.207107403555966 39.142011834319526, 26.51466001671004 39.94082840236687, 27.527128613821034 40.7396449704142, 29.14827567190173 41.53846153846154, 28.42363322267227 42.337278106508876, 27.04705193820932 43.13609467455622, 27.231136891477238 43.93491124260355, 24.559497971350492 44.73372781065089, 30.098054380886595 45.532544378698226, 29.535370749682453 46.33136094674556, 27.261455715871207 47.1301775147929, 28.60513541462218 47.928994082840234, 26.479559549387748 48.72781065088758, 27.205360815981795 49.52662721893491, 27.85432341568618 50.32544378698225, 27.223565415161737 51.124260355029584, 26.860339818355396 51.92307692307693, 27.94159059215517 52.72189349112426, 28.588894973788193 53.5207100591716, 27.69053472931904 54.319526627218934, 28.562631162511686 55.11834319526627, 27.776858268509848 55.91715976331361, 26.796881688490508 56.71597633136094, 28.701059865846766 57.514792899408285, 30.359099462750056 58.31360946745562, 25.88300611116 59.11242603550296, 30.850641851447897 59.91124260355029, 28.930207809357984 60.710059171597635, 23.006038593797445 61.50887573964497, 28.192712506746005 62.307692307692314, 50.0 63.10650887573964, 31.788420019813813 63.90532544378698, 27.889701529243045 64.70414201183432, 31.020197160181688 65.50295857988165, 29.55454616903949 66.30177514792899, 27.986093426010903 67.10059171597634, 27.243687952373907 67.89940828402366, 28.22248850268804 68.69822485207101, 27.31114038386301 69.49704142011834, 27.686883380942774 70.29585798816568, 27.343528771102825 71.09467455621302, 25.365359199048786 71.89349112426036, 31.200612722126753 72.6923076923077, 30.049244840764437 73.49112426035504, 31.122502977783807 74.28994082840237, 27.048800474547473 75.0887573964497, 28.16101099360693 75.88757396449704, 23.9769012882469 76.68639053254438, 24.361097272938792 77.48520710059172, 23.615640403316508 78.28402366863905, 18.214315139691557 79.0828402366864, 26.756118143941215 79.88165680473374, 26.4347531828305 80.68047337278107, 24.264652444628204 81.4792899408284, 27.172322691898778 82.27810650887574, 25.202671912883538 83.07692307692308, 24.4011655345165 83.87573964497041, 24.566374810306872 84.67455621301775, 23.382154015078466 85.4733727810651, 31.709860363516672 86.27218934911244, 24.144647877433563 87.07100591715975, 26.368677686084858 87.8698224852071, 25.959653269312355 88.66863905325444, 36.519879654049994 89.46745562130178, 29.236690107528595 90.26627218934911, 32.21546868906711 91.06508875739645, 27.562971961036514 91.8639053254438, 25.94574457862701 92.66272189349112, 24.98375112299114 93.46153846153845, 29.808991803510093 94.2603550295858, 30.160575016529684 95.05917159763314, 25.408369356086496 95.85798816568047, 29.39372559429515 96.65680473372781, 31.871553277028415 97.45562130177515, 28.802655350373524 98.2544378698225, 0.0 99.05325443786982, 34.132098874159496 99.85207100591715, 27.045302882388327 100.6508875739645, 25.454136996964156 101.44970414201183, 27.52806589869171 102.24852071005917, 30.38562344974189 103.04733727810651, 25.65967387003973 103.84615384615385, 27.27619198281877 104.64497041420118, 26.44410469681538 105.44378698224853, 24.097837999906407 106.24260355029585, 24.997668445901887 107.0414201183432, 23.238535281377466 107.84023668639053, 26.775190997035143 108.63905325443787, 25.816637543179667 109.43786982248521, 27.39281398013661 110.23668639053254, 27.378881833746068 111.03550295857988, 25.362225589256504 111.83431952662723, 24.21433847887761 112.63313609467457, 26.976873619005996 113.43195266272188, 26.780888453606234 114.23076923076923, 26.586691650434418 115.02958579881657, 26.654819330293204 115.82840236686391, 26.20220966167054 116.62721893491124, 25.877286716145463 117.42603550295858, 24.41519288469912 118.22485207100593, 21.018840144008937 119.02366863905324, 31.728550384654604 119.82248520710058, 27.89358604624365 120.62130177514793, 25.67843558840364 121.42011834319527, 26.72320651383767 122.2189349112426, 26.204629477181317 123.01775147928994, 21.457702362487062 123.81656804733728, 26.50352881993782 124.61538461538463, 24.605206635542665 125.41420118343194, 25.86446791701705 126.21301775147928, 24.47491475979864 127.01183431952663, 21.238238670889096 127.81065088757396, 25.53315175578491 128.60946745562129, 25.734663371199606 129.40828402366864, 23.816663885444402 130.20710059171597, 25.118924600158188 131.0059171597633, 19.46938167546282 131.80473372781066, 22.86828617094039 132.60355029585799, 25.50281078048333 133.40236686390534, 24.74419900020563 134.20118343195267, 24.980235347256645" fill="none" stroke="#57bd0f" stroke-width="1.25"/>

</svg>