<?xml version="1.0" standalone="no"?>
<!DOCTYPE svg PUBLIC "-//W3C//DTD SVG 1.1//EN" "http://www.w3.org/Graphics/SVG/1.1/DTD/svg11.dtd">

<svg width="135" height="50" viewBox="0 0 135 50" 
  xmlns="http://www.w3.org/2000/svg"
  xmlns:xlink="http://www.w3.org/1999/xlink">


<polyline points="0.0, 50.0 0.7988165680473372, 49.30094395436845 1.5976331360946745, 49.30363240803917 2.396449704142012, 47.742575247221666 3.195266272189349, 44.897079036824394 3.994082840236686, 45.19722431781466 4.792899408284024, 44.91329444155412 5.591715976331361, 48.29691534227627 6.390532544378698, 47.993282543818005 7.189349112426036, 49.640383086553115 7.988165680473372, 43.081761393504145 8.78698224852071, 38.06990648856867 9.585798816568047, 38.656603735802136 10.384615384615385, 38.652028481572444 11.183431952662723, 35.989944577258676 11.982248520710058, 36.06909457351519 12.781065088757396, 38.5636107784854 13.579881656804734, 37.18115274639215 14.378698224852071, 38.453480071371885 15.177514792899409, 38.02060565159407 15.976331360946745, 37.70272791056545 16.775147928994084, 35.64336966494216 17.57396449704142, 33.01830643952911 18.37278106508876, 30.97202408085065 19.171597633136095, 33.21204117440255 19.970414201183434, 31.058782897023374 20.76923076923077, 29.007507179041408 21.56804733727811, 31.39388904679879 22.366863905325445, 35.06865087385926 23.16568047337278, 35.33035633889338 23.964497041420117, 34.40613457795336 24.763313609467456, 33.59415183995122 25.562130177514792, 32.16847780637283 26.36094674556213, 27.70464849073035 27.159763313609467, 28.285500535423157 27.958579881656807, 26.249890195541266 28.757396449704142, 24.789238962292774 29.55621301775148, 22.519528543200323 30.355029585798817, 24.904750703581254 31.153846153846157, 27.385544945320905 31.95266272189349, 27.941733406634324 32.751479289940825, 23.025068631305924 33.55029585798817, 22.366928060672077 34.349112426035504, 20.515475923129557 35.14792899408284, 16.116766653078464 35.94674556213018, 9.037323114507915 36.74556213017752, 10.809039780297502 37.54437869822485, 10.908028553577932 38.34319526627219, 14.48870721873422 39.142011834319526, 18.22994673952226 39.94082840236687, 17.451860174391136 40.7396449704142, 17.272623886409765 41.53846153846154, 24.399740490546854 42.337278106508876, 26.993545775201035 43.13609467455622, 30.69403655913377 43.93491124260355, 28.650760826247524 44.73372781065089, 30.316508671704725 45.532544378698226, 27.845986281569974 46.33136094674556, 26.349279000396287 47.1301775147929, 26.36466530862692 47.928994082840234, 25.277219000679025 48.72781065088758, 11.94496947688812 49.52662721893491, 17.742652206706964 50.32544378698225, 24.682525840472604 51.124260355029584, 24.37623722203554 51.92307692307693, 23.373593651811866 52.72189349112426, 22.416318100986725 53.5207100591716, 22.843981343961282 54.319526627218934, 26.060300041239792 55.11834319526627, 20.675749754916076 55.91715976331361, 20.452567515241014 56.71597633136094, 21.022698461440495 57.514792899408285, 21.181740397269547 58.31360946745562, 19.738597289674452 59.11242603550296, 18.02743427498771 59.91124260355029, 16.027664428450546 60.710059171597635, 16.28089158280435 61.50887573964497, 15.633140085399486 62.307692307692314, 19.519761536395983 63.10650887573964, 19.017817135409246 63.90532544378698, 20.03706321040934 64.70414201183432, 19.177997644552253 65.50295857988165, 20.017803994941854 66.30177514792899, 23.084502943364 67.10059171597634, 24.918954858331745 67.89940828402366, 22.239831566046174 68.69822485207101, 23.2445691291208 69.49704142011834, 22.314634233771375 70.29585798816568, 23.19642170454 71.09467455621302, 23.123686277734162 71.89349112426036, 21.735748812600082 72.6923076923077, 25.060766318866158 73.49112426035504, 27.65486626940772 74.28994082840237, 27.670613008021363 75.0887573964497, 28.39265119947083 75.88757396449704, 26.828211663894802 76.68639053254438, 27.14812718793041 77.48520710059172, 29.18819866639269 78.28402366863905, 30.6699535205749 79.0828402366864, 30.003348490797094 79.88165680473374, 30.279679000235888 80.68047337278107, 31.595286001623492 81.4792899408284, 31.16624065776266 82.27810650887574, 30.15258918935823 83.07692307692308, 27.372989501926277 83.87573964497041, 26.435463169814994 84.67455621301775, 27.945606595905765 85.4733727810651, 27.206704166678453 86.27218934911244, 29.018147043067945 87.07100591715975, 28.53716346018051 87.8698224852071, 26.784147137097875 88.66863905325444, 28.051969036352258 89.46745562130178, 27.573964474237616 90.26627218934911, 30.056898113119924 91.06508875739645, 29.531900966917483 91.8639053254438, 27.91112397354121 92.66272189349112, 28.20693424134497 93.46153846153845, 29.211581282254006 94.2603550295858, 31.665670059178687 95.05917159763314, 31.153059938914634 95.85798816568047, 31.068394575821394 96.65680473372781, 30.68258646077534 97.45562130177515, 31.635903107131035 98.2544378698225, 31.59262494387592 99.05325443786982, 32.671748871376764 99.85207100591715, 34.03200505010367 100.6508875739645, 33.85767903041103 101.44970414201183, 36.81075539777831 102.24852071005917, 35.00353847833787 103.04733727810651, 31.33179762132222 103.84615384615385, 28.16622538512979 104.64497041420118, 25.62230388015272 105.44378698224853, 23.936813489916222 106.24260355029585, 23.925548883253352 107.0414201183432, 25.70464460070886 107.84023668639053, 26.63409772119325 108.63905325443787, 26.62511616568847 109.43786982248521, 26.604687518439867 110.23668639053254, 25.44097997055651 111.03550295857988, 24.92628812634338 111.83431952662723, 25.440845729298594 112.63313609467457, 26.180490759839532 113.43195266272188, 26.352873428654988 114.23076923076923, 25.775303949426327 115.02958579881657, 24.50813637610673 115.82840236686391, 21.90829480758139 116.62721893491124, 18.16583882519907 117.42603550295858, 20.74571321857614 118.22485207100593, 19.208982046203367 119.02366863905324, 21.248814657526236 119.82248520710058, 20.213675927881063 120.62130177514793, 24.06773672090635 121.42011834319527, 25.711714289845784 122.2189349112426, 9.767619169505416 123.01775147928994, 4.190208207294101 123.81656804733728, 0.0 124.61538461538463, 5.120201216345509 125.41420118343194, 0.7628287474181091 126.21301775147928, 5.8442527233066714 127.01183431952663, 6.380704006635225 127.81065088757396, 7.462186110152295 128.60946745562129, 5.520307338358343 129.40828402366864, 2.133855861984134 130.20710059171597, 6.8597085987783535 131.0059171597633, 4.539731597555894 131.80473372781066, 4.8465829723144145 132.60355029585799, 3.3110416664124545 133.40236686390534, 3.1070629246938086 134.20118343195267, 1.733516124190238" fill="none" stroke="#57bd0f" stroke-width="1.25"/>

</svg>