<?xml version="1.0" standalone="no"?>
<!DOCTYPE svg PUBLIC "-//W3C//DTD SVG 1.1//EN" "http://www.w3.org/Graphics/SVG/1.1/DTD/svg11.dtd">

<svg width="135" height="50" viewBox="0 0 135 50" 
  xmlns="http://www.w3.org/2000/svg"
  xmlns:xlink="http://www.w3.org/1999/xlink">


<polyline points="0.0, 5.206050108409167 0.7988165680473372, 2.291712839572311 1.5976331360946745, 2.24499373283288 2.396449704142012, 0.0 3.195266272189349, 1.3390770179272136 3.994082840236686, 0.9655881829538953 4.792899408284024, 5.166925986460639 5.591715976331361, 8.688005382828587 6.390532544378698, 10.07891856425278 7.189349112426036, 16.058682520120705 7.988165680473372, 11.08492056721279 8.78698224852071, 17.25688293411936 9.585798816568047, 16.125402952040734 10.384615384615385, 17.949915730452474 11.183431952662723, 24.75855481182111 11.982248520710058, 22.2098052242199 12.781065088757396, 25.47861824503068 13.579881656804734, 28.741925738447126 14.378698224852071, 31.948806107213596 15.177514792899409, 34.617631462130255 15.976331360946745, 32.921041448138176 16.775147928994084, 32.454191198949204 17.57396449704142, 34.33297189301307 18.37278106508876, 37.963989305274616 19.171597633136095, 35.533464534324594 19.970414201183434, 37.69712267457647 20.76923076923077, 37.727906961672566 21.56804733727811, 39.09418635486005 22.366863905325445, 35.7418378793113 23.16568047337278, 37.462833473772356 23.964497041420117, 35.20364845689836 24.763313609467456, 35.122027778237 25.562130177514792, 35.9581172240843 26.36094674556213, 38.586056894810405 27.159763313609467, 39.50718566434078 27.958579881656807, 42.77928351966142 28.757396449704142, 39.44425408662455 29.55621301775148, 37.539680309392324 30.355029585798817, 36.982888702792714 31.153846153846157, 37.13333618801678 31.95266272189349, 36.59617793728074 32.751479289940825, 37.262311184659495 33.55029585798817, 34.99299434574275 34.349112426035504, 32.83256343662867 35.14792899408284, 13.206197262903821 35.94674556213018, 22.462720009398947 36.74556213017752, 25.775735052286286 37.54437869822485, 25.86275220249649 38.34319526627219, 28.287848116280408 39.142011834319526, 31.540434043027137 39.94082840236687, 29.119741102893006 40.7396449704142, 26.20052563777143 41.53846153846154, 26.526710987140756 42.337278106508876, 27.115695108628284 43.13609467455622, 27.510599989994017 43.93491124260355, 26.97822648327805 44.73372781065089, 23.02024757111617 45.532544378698226, 18.321095086539007 46.33136094674556, 17.408797439107463 47.1301775147929, 20.607823826856887 47.928994082840234, 18.740339455238104 48.72781065088758, 20.64440599558963 49.52662721893491, 24.1849921875106 50.32544378698225, 27.328030935044346 51.124260355029584, 25.601189695348125 51.92307692307693, 22.456831723269765 52.72189349112426, 20.161701374375916 53.5207100591716, 20.843985392064035 54.319526627218934, 22.12944475106637 55.11834319526627, 20.646431546444735 55.91715976331361, 20.939907292992448 56.71597633136094, 22.14673125937991 57.514792899408285, 22.46253343889017 58.31360946745562, 25.135961239750227 59.11242603550296, 25.784154030789235 59.91124260355029, 21.524177740253194 60.710059171597635, 21.84188942569423 61.50887573964497, 23.47955202442662 62.307692307692314, 23.56865916372968 63.10650887573964, 23.059267264989668 63.90532544378698, 22.79185739029851 64.70414201183432, 18.583900590870567 65.50295857988165, 17.562539563271766 66.30177514792899, 15.431548188283994 67.10059171597634, 17.16480668379813 67.89940828402366, 18.776166343623217 68.69822485207101, 16.97263285532007 69.49704142011834, 18.843720765936485 70.29585798816568, 21.075552010739084 71.09467455621302, 20.93361490938624 71.89349112426036, 20.36635488852477 72.6923076923077, 24.518996766366822 73.49112426035504, 30.098552600071095 74.28994082840237, 30.259451711800423 75.0887573964497, 29.353527480589296 75.88757396449704, 29.729638378879304 76.68639053254438, 31.904534298061282 77.48520710059172, 34.62468630591918 78.28402366863905, 35.12468126165515 79.0828402366864, 38.969863261601084 79.88165680473374, 37.23018191270842 80.68047337278107, 36.36463518171674 81.4792899408284, 36.19299218803074 82.27810650887574, 37.7825328551297 83.07692307692308, 37.536337142992004 83.87573964497041, 34.48917701203641 84.67455621301775, 35.08906474318809 85.4733727810651, 35.369831890670476 86.27218934911244, 35.90394531495792 87.07100591715975, 32.692234649497195 87.8698224852071, 27.404384369154183 88.66863905325444, 25.038254677902728 89.46745562130178, 26.45107310802612 90.26627218934911, 31.969684842211425 91.06508875739645, 31.022687394153486 91.8639053254438, 34.648479656542094 92.66272189349112, 34.23704304485521 93.46153846153845, 33.17964640400151 94.2603550295858, 32.8753121805795 95.05917159763314, 34.1586511837144 95.85798816568047, 33.7624795474765 96.65680473372781, 31.67757653318145 97.45562130177515, 32.041184058468524 98.2544378698225, 32.4215278832404 99.05325443786982, 32.379268260663544 99.85207100591715, 33.53907856624175 100.6508875739645, 32.47513831798056 101.44970414201183, 32.6061160222166 102.24852071005917, 34.43074159710659 103.04733727810651, 32.063627926828204 103.84615384615385, 34.11300438375889 104.64497041420118, 34.94504891014208 105.44378698224853, 34.78451579889927 106.24260355029585, 34.84286828204913 107.0414201183432, 31.538857651256546 107.84023668639053, 33.5835778672079 108.63905325443787, 33.44225551895854 109.43786982248521, 32.753614925385705 110.23668639053254, 32.787267808689144 111.03550295857988, 32.44684086144831 111.83431952662723, 32.45868393740812 112.63313609467457, 31.300886184771016 113.43195266272188, 33.18745425861542 114.23076923076923, 33.45116900779716 115.02958579881657, 32.52437382972397 115.82840236686391, 32.936169634915515 116.62721893491124, 32.83893728535532 117.42603550295858, 34.5507267938012 118.22485207100593, 34.44690097248468 119.02366863905324, 34.80855036391938 119.82248520710058, 34.49393770810666 120.62130177514793, 35.86861139286632 121.42011834319527, 35.4134014145237 122.2189349112426, 31.892823826574425 123.01775147928994, 36.17799360161651 123.81656804733728, 36.599825324412905 124.61538461538463, 37.65245724166722 125.41420118343194, 38.21331520416755 126.21301775147928, 41.71238130424182 127.01183431952663, 37.99258045349058 127.81065088757396, 36.93016150274219 128.60946745562129, 37.53490243170921 129.40828402366864, 39.002684551134 130.20710059171597, 50.0 131.0059171597633, 45.28890323168018 131.80473372781066, 46.43879807284472 132.60355029585799, 44.558366824463015 133.40236686390534, 42.73817409535042 134.20118343195267, 45.003055571227904" fill="none" stroke="#ed5565" stroke-width="1.25"/>

</svg>