<?xml version="1.0" standalone="no"?>
<!DOCTYPE svg PUBLIC "-//W3C//DTD SVG 1.1//EN" "http://www.w3.org/Graphics/SVG/1.1/DTD/svg11.dtd">

<svg width="135" height="50" viewBox="0 0 135 50" 
  xmlns="http://www.w3.org/2000/svg"
  xmlns:xlink="http://www.w3.org/1999/xlink">


<polyline points="0.0, 10.301151056715028 0.7988165680473372, 7.039351290246519 1.5976331360946745, 6.494189348174638 2.396449704142012, 0.0 3.195266272189349, 1.4024652602351468 3.994082840236686, 3.583322278965823 4.792899408284024, 7.129767962637594 5.591715976331361, 16.791103786036103 6.390532544378698, 20.28252663369461 7.189349112426036, 31.536002067946406 7.988165680473372, 25.168714030227584 8.78698224852071, 30.763589250102015 9.585798816568047, 26.850480566205427 10.384615384615385, 23.49035208687699 11.183431952662723, 29.367498287702748 11.982248520710058, 28.54013547779309 12.781065088757396, 32.39032543588391 13.579881656804734, 31.070027493475976 14.378698224852071, 39.40912192537119 15.177514792899409, 39.52324397832016 15.976331360946745, 37.253465635289004 16.775147928994084, 34.16657179715533 17.57396449704142, 35.620897734728864 18.37278106508876, 39.43065764669525 19.171597633136095, 34.16962575486376 19.970414201183434, 33.68274344960868 20.76923076923077, 35.31699481755734 21.56804733727811, 36.125068993138115 22.366863905325445, 33.42571894801517 23.16568047337278, 34.37104017971039 23.964497041420117, 33.054303750793615 24.763313609467456, 31.00259527793476 25.562130177514792, 29.54076856994056 26.36094674556213, 30.66522329055029 27.159763313609467, 30.00374744411069 27.958579881656807, 28.188371689226116 28.757396449704142, 29.441773804284026 29.55621301775148, 31.634662690353206 30.355029585798817, 28.790762518825186 31.153846153846157, 29.45560576898092 31.95266272189349, 29.553740848660055 32.751479289940825, 29.74150688589507 33.55029585798817, 29.711027543238334 34.349112426035504, 27.06244954279484 35.14792899408284, 23.39629517712633 35.94674556213018, 23.56212637632465 36.74556213017752, 28.90194114408253 37.54437869822485, 29.378553645041904 38.34319526627219, 30.542505515388463 39.142011834319526, 31.142707595921387 39.94082840236687, 29.158220872074946 40.7396449704142, 24.859496198130078 41.53846153846154, 30.581165476396304 42.337278106508876, 30.72248030261474 43.13609467455622, 33.559814916098155 43.93491124260355, 33.19454037617638 44.73372781065089, 30.57981104620579 45.532544378698226, 32.944134432483516 46.33136094674556, 31.950094259612815 47.1301775147929, 31.606585073987663 47.928994082840234, 34.10190719484476 48.72781065088758, 34.863310819625525 49.52662721893491, 37.502261676664666 50.32544378698225, 38.17232853683255 51.124260355029584, 34.40922900743952 51.92307692307693, 32.41204701031085 52.72189349112426, 31.37491926296948 53.5207100591716, 27.877958924035283 54.319526627218934, 28.771324788774503 55.11834319526627, 30.891652057150136 55.91715976331361, 32.341764324654434 56.71597633136094, 32.79344658585395 57.514792899408285, 33.16366567578813 58.31360946745562, 34.4838560252157 59.11242603550296, 35.20204525031009 59.91124260355029, 33.48404079679402 60.710059171597635, 35.21655363187814 61.50887573964497, 34.884511472757985 62.307692307692314, 31.511626575968037 63.10650887573964, 31.466744338828693 63.90532544378698, 31.42341526242425 64.70414201183432, 31.328259667809057 65.50295857988165, 32.561220913756756 66.30177514792899, 32.24858763006673 67.10059171597634, 33.31565407140552 67.89940828402366, 31.659120083416685 68.69822485207101, 32.171885200353096 69.49704142011834, 35.305461774304945 70.29585798816568, 35.11059915707811 71.09467455621302, 34.780347420825294 71.89349112426036, 37.69021245282947 72.6923076923077, 42.252009531874904 73.49112426035504, 46.608818054178705 74.28994082840237, 41.53579520753654 75.0887573964497, 42.8110344215332 75.88757396449704, 42.72848247647334 76.68639053254438, 44.46377613171244 77.48520710059172, 45.538090586838734 78.28402366863905, 47.34663270385085 79.0828402366864, 50.0 79.88165680473374, 45.9962077511093 80.68047337278107, 43.9756473061373 81.4792899408284, 45.98919786613518 82.27810650887574, 44.538791870076736 83.07692307692308, 41.23455298337976 83.87573964497041, 38.26185615903175 84.67455621301775, 40.0049751721359 85.4733727810651, 37.07370899318621 86.27218934911244, 36.33920117986752 87.07100591715975, 31.986270056917622 87.8698224852071, 25.737996855874474 88.66863905325444, 30.841228304372635 89.46745562130178, 31.96538013390961 90.26627218934911, 40.63054421270318 91.06508875739645, 37.0011106624854 91.8639053254438, 38.34075596099999 92.66272189349112, 33.62365235384798 93.46153846153845, 35.201802219146444 94.2603550295858, 34.35891648683953 95.05917159763314, 34.17084132229364 95.85798816568047, 33.46458441383128 96.65680473372781, 30.86430057747695 97.45562130177515, 32.2870023524867 98.2544378698225, 33.62247432412659 99.05325443786982, 36.089406015878005 99.85207100591715, 37.98306807980212 100.6508875739645, 36.0632111774261 101.44970414201183, 38.4120776243372 102.24852071005917, 38.43201035963049 103.04733727810651, 37.76447070437321 103.84615384615385, 36.66722705944592 104.64497041420118, 37.47338993174434 105.44378698224853, 38.367258288728635 106.24260355029585, 40.614876802856074 107.0414201183432, 41.06422875696729 107.84023668639053, 38.374042198005895 108.63905325443787, 38.34736729144632 109.43786982248521, 36.39862353629524 110.23668639053254, 36.546986220978084 111.03550295857988, 35.156829205204865 111.83431952662723, 35.736096865417174 112.63313609467457, 34.52121454471275 113.43195266272188, 35.35428870757723 114.23076923076923, 35.17684952462364 115.02958579881657, 32.86997455686084 115.82840236686391, 32.8027148237098 116.62721893491124, 32.643228271689225 117.42603550295858, 34.755177231721476 118.22485207100593, 35.971920687038406 119.02366863905324, 37.57557759785989 119.82248520710058, 35.30040840301635 120.62130177514793, 34.48282256541171 121.42011834319527, 37.57673671368145 122.2189349112426, 34.00225323010348 123.01775147928994, 39.69313380720722 123.81656804733728, 40.18272413863737 124.61538461538463, 40.39539659849354 125.41420118343194, 38.475980085353896 126.21301775147928, 44.00098691811227 127.01183431952663, 44.096572062576826 127.81065088757396, 43.18053359475263 128.60946745562129, 43.30373315191906 129.40828402366864, 39.74908521936197 130.20710059171597, 41.50761384273036 131.0059171597633, 44.488479272082934 131.80473372781066, 44.47363454121817 132.60355029585799, 47.648577129126565 133.40236686390534, 46.851304071594605 134.20118343195267, 43.12688519548494" fill="none" stroke="#ed5565" stroke-width="1.25"/>

</svg>