<?xml version="1.0" standalone="no"?>
<!DOCTYPE svg PUBLIC "-//W3C//DTD SVG 1.1//EN" "http://www.w3.org/Graphics/SVG/1.1/DTD/svg11.dtd">

<svg width="135" height="50" viewBox="0 0 135 50" 
  xmlns="http://www.w3.org/2000/svg"
  xmlns:xlink="http://www.w3.org/1999/xlink">


<polyline points="0.0, 19.19101652783584 0.7988165680473372, 19.259790781100094 1.5976331360946745, 19.611590845935474 2.396449704142012, 10.007613422752694 3.195266272189349, 6.636006963777677 3.994082840236686, 6.593420811921124 4.792899408284024, 17.47276570140701 5.591715976331361, 14.217853569069797 6.390532544378698, 19.234296530073422 7.189349112426036, 14.526245353986452 7.988165680473372, 13.07472415060669 8.78698224852071, 10.018861469696153 9.585798816568047, 7.503785112903779 10.384615384615385, 8.576678074715065 11.183431952662723, 8.355485655280352 11.982248520710058, 12.044906996973118 12.781065088757396, 15.505303045292218 13.579881656804734, 17.3368020794293 14.378698224852071, 20.306052985399226 15.177514792899409, 12.795577095134353 15.976331360946745, 15.418585342252705 16.775147928994084, 10.483512259388041 17.57396449704142, 10.126190218138715 18.37278106508876, 6.4796687559479 19.171597633136095, 8.425728590324166 19.970414201183434, 6.860539851254277 20.76923076923077, 5.769219340795839 21.56804733727811, 4.168405235675366 22.366863905325445, 0.0 23.16568047337278, 4.2459851817322845 23.964497041420117, 2.6292800297922923 24.763313609467456, 0.6152094583673811 25.562130177514792, 2.0458997313443765 26.36094674556213, 1.2345383667175793 27.159763313609467, 2.8753421396008267 27.958579881656807, 5.150865983334822 28.757396449704142, 9.68718550149614 29.55621301775148, 10.75827568022733 30.355029585798817, 10.071953051832184 31.153846153846157, 8.707467191079568 31.95266272189349, 8.013808362596528 32.751479289940825, 3.9719732656640567 33.55029585798817, 6.654725447768292 34.349112426035504, 2.5898624390444227 35.14792899408284, 2.62363181629976 35.94674556213018, 2.698387768815887 36.74556213017752, 3.960393003006947 37.54437869822485, 5.973300094315034 38.34319526627219, 9.551263157392832 39.142011834319526, 7.0498444053742695 39.94082840236687, 9.278861044856122 40.7396449704142, 8.158959833721127 41.53846153846154, 8.188200641408491 42.337278106508876, 11.216455731102906 43.13609467455622, 11.040615498537028 43.93491124260355, 12.609481213156673 44.73372781065089, 12.71812872338092 45.532544378698226, 12.026593969795673 46.33136094674556, 12.467098837260584 47.1301775147929, 14.157086135828372 47.928994082840234, 15.71444462555862 48.72781065088758, 18.069938227461055 49.52662721893491, 18.139874340383944 50.32544378698225, 15.332211815669226 51.124260355029584, 13.981633372542513 51.92307692307693, 14.621283681279065 52.72189349112426, 12.41761229698715 53.5207100591716, 11.847880470802806 54.319526627218934, 14.089026654362186 55.11834319526627, 15.141885258459636 55.91715976331361, 15.112622190808445 56.71597633136094, 16.855215728998925 57.514792899408285, 17.23667012455683 58.31360946745562, 18.03763289009964 59.11242603550296, 15.523678995159267 59.91124260355029, 13.968690702896888 60.710059171597635, 15.671106217665463 61.50887573964497, 14.533924763333822 62.307692307692314, 14.090504611637177 63.10650887573964, 12.573433375338128 63.90532544378698, 12.471179741465017 64.70414201183432, 14.347080415877889 65.50295857988165, 15.410871783588586 66.30177514792899, 13.702008725292794 67.10059171597634, 14.209362231818684 67.89940828402366, 14.46956582968959 68.69822485207101, 14.339750020624292 69.49704142011834, 15.552609899463366 70.29585798816568, 13.895467519969312 71.09467455621302, 15.465773847869288 71.89349112426036, 18.66276807710286 72.6923076923077, 19.056247529661782 73.49112426035504, 18.567989843440873 74.28994082840237, 21.631876519667944 75.0887573964497, 23.528775650993946 75.88757396449704, 26.353803389968988 76.68639053254438, 27.238447747589863 77.48520710059172, 29.78535369705234 78.28402366863905, 34.311313680182856 79.0828402366864, 34.65845664102711 79.88165680473374, 34.12842583454411 80.68047337278107, 33.049383708584664 81.4792899408284, 33.99630263658559 82.27810650887574, 32.89707690168136 83.07692307692308, 33.74244699861814 83.87573964497041, 33.52760182952963 84.67455621301775, 34.36790178886844 85.4733727810651, 36.25796917788691 86.27218934911244, 34.2493490143852 87.07100591715975, 30.712364695741694 87.8698224852071, 29.779709641066265 88.66863905325444, 29.881271545603834 89.46745562130178, 33.85374628883633 90.26627218934911, 33.300462099487326 91.06508875739645, 34.65102585092422 91.8639053254438, 35.305800752235285 92.66272189349112, 33.411261845088866 93.46153846153845, 32.95553414751734 94.2603550295858, 33.22696773718593 95.05917159763314, 33.79836096648871 95.85798816568047, 33.29907900709445 96.65680473372781, 32.50303904572182 97.45562130177515, 33.53294164875826 98.2544378698225, 34.940478317759734 99.05325443786982, 42.415808300891456 99.85207100591715, 43.47778918149948 100.6508875739645, 48.788260684211465 101.44970414201183, 47.686855972619455 102.24852071005917, 45.32442634108638 103.04733727810651, 43.02090839902598 103.84615384615385, 45.93482764768257 104.64497041420118, 43.37499028463756 105.44378698224853, 44.51711403090928 106.24260355029585, 44.64509559399675 107.0414201183432, 47.552321695215525 107.84023668639053, 49.28783429912815 108.63905325443787, 47.95489408112295 109.43786982248521, 46.5089945464321 110.23668639053254, 46.14363215991949 111.03550295857988, 48.094420125040166 111.83431952662723, 50.0 112.63313609467457, 48.53872066362877 113.43195266272188, 48.20499861008744 114.23076923076923, 47.905743691367256 115.02958579881657, 46.84217480518488 115.82840236686391, 46.16712977608166 116.62721893491124, 41.0138330807201 117.42603550295858, 43.97572357581153 118.22485207100593, 42.43720008190574 119.02366863905324, 40.4357889229937 119.82248520710058, 38.84471387149587 120.62130177514793, 35.34070419077186 121.42011834319527, 32.390026718370216 122.2189349112426, 37.94180909353469 123.01775147928994, 39.01671851542922 123.81656804733728, 41.12521376866995 124.61538461538463, 44.866969273814405 125.41420118343194, 46.57931544665859 126.21301775147928, 47.56498414362524 127.01183431952663, 45.23089309130323 127.81065088757396, 45.038322439163956 128.60946745562129, 40.339457522813206 129.40828402366864, 40.132191902441875 130.20710059171597, 41.726855737759486 131.0059171597633, 39.41245947239399 131.80473372781066, 42.58837637690124 132.60355029585799, 43.74458243255143 133.40236686390534, 45.80863774282396 134.20118343195267, 45.05005166629" fill="none" stroke="#ed5565" stroke-width="1.25"/>

</svg>