<?xml version="1.0" standalone="no"?>
<!DOCTYPE svg PUBLIC "-//W3C//DTD SVG 1.1//EN" "http://www.w3.org/Graphics/SVG/1.1/DTD/svg11.dtd">

<svg width="135" height="50" viewBox="0 0 135 50" 
  xmlns="http://www.w3.org/2000/svg"
  xmlns:xlink="http://www.w3.org/1999/xlink">


<polyline points="0.0, 34.71213512835468 0.7988165680473372, 27.64114592711643 1.5976331360946745, 23.699816595569462 2.396449704142012, 23.99625803274378 3.195266272189349, 25.356649442832985 3.994082840236686, 26.450655516797482 4.792899408284024, 22.45153845164069 5.591715976331361, 25.25310705049269 6.390532544378698, 26.23875157635735 7.189349112426036, 28.75596526309026 7.988165680473372, 25.6845738679336 8.78698224852071, 26.803926802052043 9.585798816568047, 24.046175398503152 10.384615384615385, 20.499463890508345 11.183431952662723, 20.035691201033973 11.982248520710058, 12.067451384448226 12.781065088757396, 6.977601477364391 13.579881656804734, 10.650819610120537 14.378698224852071, 6.474957491281633 15.177514792899409, 11.031293299699868 15.976331360946745, 3.5364204281824865 16.775147928994084, 0.0 17.57396449704142, 5.159507192356078 18.37278106508876, 7.281901916947161 19.171597633136095, 7.563112003211871 19.970414201183434, 8.332307006248156 20.76923076923077, 11.930840327878943 21.56804733727811, 18.397634171129283 22.366863905325445, 23.673667459489586 23.16568047337278, 23.20380187904742 23.964497041420117, 20.12786050933832 24.763313609467456, 20.056946326498583 25.562130177514792, 22.876141416344645 26.36094674556213, 29.679838830514637 27.159763313609467, 26.764533127886004 27.958579881656807, 24.453826512416178 28.757396449704142, 23.454188624926356 29.55621301775148, 27.651852870226197 30.355029585798817, 29.901783721447377 31.153846153846157, 32.000397446470416 31.95266272189349, 26.448921264384097 32.751479289940825, 33.8239472233377 33.55029585798817, 33.45006783895141 34.349112426035504, 25.17022950890783 35.14792899408284, 25.717440875476864 35.94674556213018, 27.150809009153875 36.74556213017752, 24.639753137650217 37.54437869822485, 22.322689874720545 38.34319526627219, 23.819246181363678 39.142011834319526, 27.35023441763899 39.94082840236687, 27.465780491796586 40.7396449704142, 28.093928846317073 41.53846153846154, 29.88078740432117 42.337278106508876, 32.33202614821691 43.13609467455622, 29.73494454336963 43.93491124260355, 31.62035666515729 44.73372781065089, 31.26094355082915 45.532544378698226, 33.77635908488062 46.33136094674556, 34.95705176902171 47.1301775147929, 33.80890232353339 47.928994082840234, 33.02836876833263 48.72781065088758, 32.11427609523769 49.52662721893491, 33.83575362763883 50.32544378698225, 31.76391805953575 51.124260355029584, 31.82575723511253 51.92307692307693, 32.382329630634096 52.72189349112426, 28.080819062718653 53.5207100591716, 28.96414418245399 54.319526627218934, 31.168190618513915 55.11834319526627, 31.49037403701141 55.91715976331361, 31.37711413622925 56.71597633136094, 31.20353287971985 57.514792899408285, 30.83325501120407 58.31360946745562, 31.42728950097866 59.11242603550296, 32.9349763043527 59.91124260355029, 33.48712552839633 60.710059171597635, 33.57718884766 61.50887573964497, 34.01776929794724 62.307692307692314, 35.00571714280513 63.10650887573964, 35.85246125148882 63.90532544378698, 38.98896789466244 64.70414201183432, 39.24281946088356 65.50295857988165, 40.48090839179388 66.30177514792899, 38.15670667536531 67.10059171597634, 37.158481461223175 67.89940828402366, 39.00757562697337 68.69822485207101, 38.82980897102058 69.49704142011834, 39.1046790460264 70.29585798816568, 37.35830083985363 71.09467455621302, 37.211148470426394 71.89349112426036, 38.620060325485014 72.6923076923077, 39.230216202211864 73.49112426035504, 40.36407356856665 74.28994082840237, 41.909519085458 75.0887573964497, 40.38494000050936 75.88757396449704, 42.13177956496173 76.68639053254438, 41.718691678635786 77.48520710059172, 43.22683066260447 78.28402366863905, 42.4251586822235 79.0828402366864, 40.64076400949781 79.88165680473374, 41.53058597792585 80.68047337278107, 41.97563713308885 81.4792899408284, 41.162317912971915 82.27810650887574, 37.55421712226312 83.07692307692308, 37.935883815777075 83.87573964497041, 40.15054531235634 84.67455621301775, 39.08839184844 85.4733727810651, 39.3092704862889 86.27218934911244, 39.88745105487016 87.07100591715975, 41.75349585399443 87.8698224852071, 42.194568831956865 88.66863905325444, 40.52200321298526 89.46745562130178, 41.44764713271407 90.26627218934911, 41.79925885897861 91.06508875739645, 41.960326555274285 91.8639053254438, 43.05730787763068 92.66272189349112, 42.84553811686776 93.46153846153845, 41.902797867023985 94.2603550295858, 43.28031137099444 95.05917159763314, 41.48452675070724 95.85798816568047, 42.16369761672995 96.65680473372781, 41.053244674926006 97.45562130177515, 39.80751516162892 98.2544378698225, 38.530246448115655 99.05325443786982, 38.52447851720683 99.85207100591715, 40.19761003405713 100.6508875739645, 39.94625444490415 101.44970414201183, 39.2573911996835 102.24852071005917, 39.3684921965985 103.04733727810651, 39.73334921713513 103.84615384615385, 39.49176074508578 104.64497041420118, 41.72968031907446 105.44378698224853, 41.89094576822159 106.24260355029585, 42.68093152116289 107.0414201183432, 42.985185856793365 107.84023668639053, 42.36443240205852 108.63905325443787, 42.112999396345366 109.43786982248521, 41.507372769210626 110.23668639053254, 40.5148264712973 111.03550295857988, 40.73887070691796 111.83431952662723, 39.58225108870065 112.63313609467457, 40.600792436890984 113.43195266272188, 41.37994478006337 114.23076923076923, 41.53679470800228 115.02958579881657, 42.16694621494233 115.82840236686391, 42.191274194492465 116.62721893491124, 42.43615966203016 117.42603550295858, 42.15927903861036 118.22485207100593, 41.86341628430094 119.02366863905324, 40.98519240661194 119.82248520710058, 40.99146592085543 120.62130177514793, 41.60048819013437 121.42011834319527, 41.993662671369755 122.2189349112426, 41.40654309396453 123.01775147928994, 41.724938316451265 123.81656804733728, 42.13618229449647 124.61538461538463, 42.169321450733186 125.41420118343194, 42.196424849934296 126.21301775147928, 45.082236453858215 127.01183431952663, 44.968638282754135 127.81065088757396, 47.786674170462476 128.60946745562129, 47.71727890939233 129.40828402366864, 48.35866615636978 130.20710059171597, 49.74353820780977 131.0059171597633, 50.0 131.80473372781066, 48.980442122603726 132.60355029585799, 48.71102342049875 133.40236686390534, 48.59413799907419 134.20118343195267, 49.487542758743395" fill="none" stroke="#ed5565" stroke-width="1.25"/>

</svg>