<?xml version="1.0" standalone="no"?>
<!DOCTYPE svg PUBLIC "-//W3C//DTD SVG 1.1//EN" "http://www.w3.org/Graphics/SVG/1.1/DTD/svg11.dtd">

<svg width="135" height="50" viewBox="0 0 135 50" 
  xmlns="http://www.w3.org/2000/svg"
  xmlns:xlink="http://www.w3.org/1999/xlink">


<polyline points="0.0, 30.86417969046542 0.7941176470588235, 31.06242347681941 1.588235294117647, 37.47286414610501 2.3823529411764706, 39.548684812897974 3.176470588235294, 37.41393408994862 3.9705882352941178, 34.170708098972895 4.764705882352941, 28.704845287328613 5.5588235294117645, 32.80312146272752 6.352941176470588, 32.11859370855926 7.147058823529411, 31.112336083489172 7.9411764705882355, 31.317975094255505 8.73529411764706, 34.45717437697172 9.529411764705882, 39.16752727984901 10.323529411764707, 34.36989840875297 11.117647058823529, 33.63983279587866 11.911764705882353, 34.04767162924859 12.705882352941176, 31.129235712193598 13.5, 31.959741761604 14.294117647058822, 32.60578501089684 15.088235294117649, 29.060751380176054 15.882352941176471, 29.5754348921693 16.676470588235293, 23.704460300128417 17.47058823529412, 25.987464645879577 18.26470588235294, 27.79104807741261 19.058823529411764, 27.661262139712772 19.85294117647059, 25.822009554869602 20.647058823529413, 24.684028246834448 21.441176470588236, 26.19608403349105 22.235294117647058, 25.889536374610916 23.029411764705884, 27.56105390687215 23.823529411764707, 28.977213414097548 24.61764705882353, 27.861692475633106 25.41176470588235, 35.45135298475167 26.205882352941178, 38.25855586372328 27.0, 38.66764723529986 27.794117647058822, 35.917179243574964 28.588235294117645, 41.87934702563157 29.38235294117647, 39.04119212826602 30.176470588235297, 36.280139900442705 30.970588235294116, 37.5061275635909 31.764705882352942, 40.46311581009312 32.55882352941177, 38.4327250930548 33.35294117647059, 36.79223415027346 34.14705882352941, 37.38104358137657 34.94117647058824, 39.85373771712402 35.73529411764706, 39.852012007419304 36.52941176470588, 41.279252832954924 37.32352941176471, 41.25122867853511 38.11764705882353, 36.31951058136649 38.91176470588235, 36.09611468067053 39.70588235294118, 43.544596827269814 40.5, 45.66853544722216 41.294117647058826, 49.62903197322148 42.088235294117645, 45.85840155985753 42.88235294117647, 40.79110197939943 43.6764705882353, 45.2555312340635 44.470588235294116, 41.16843377052311 45.264705882352935, 42.30633072586095 46.05882352941177, 39.88531390699776 46.85294117647059, 40.262427819756375 47.64705882352941, 36.35445105399849 48.44117647058824, 39.872548884522004 49.23529411764706, 39.25682447940238 50.029411764705884, 42.559715741369885 50.8235294117647, 40.74091942834725 51.61764705882353, 43.95512167917114 52.411764705882355, 44.59618401125432 53.205882352941174, 45.154806556457174 54.0, 49.0724795078698 54.794117647058826, 46.55007989581457 55.588235294117645, 46.73153007335708 56.38235294117647, 46.298309558733486 57.17647058823529, 46.518979353980136 57.970588235294116, 48.341612102985074 58.76470588235294, 50.0 59.55882352941176, 47.46987905867825 60.352941176470594, 46.04147485798755 61.14705882352941, 41.25507006047435 61.94117647058823, 37.145689054609484 62.73529411764706, 37.92934660486175 63.529411764705884, 35.55164833701197 64.3235294117647, 37.27810742179831 65.11764705882354, 34.254042774266544 65.91176470588235, 23.577297869411183 66.70588235294117, 21.566499465692655 67.5, 19.923641796902903 68.29411764705883, 6.884850978469975 69.08823529411764, 9.87282086859947 69.88235294117648, 11.017399374875277 70.6764705882353, 8.219960851326094 71.47058823529412, 16.47850965493173 72.26470588235294, 18.34554881800903 73.05882352941175, 23.868183909361893 73.8529411764706, 21.343054357987494 74.64705882352942, 26.18424735069189 75.44117647058823, 22.85133316993978 76.23529411764706, 29.768976132205776 77.02941176470588, 21.34064963052155 77.8235294117647, 24.20202297243957 78.61764705882354, 18.723703261947957 79.41176470588236, 11.327949760941971 80.20588235294117, 17.797067698281445 81.0, 15.444211980749834 81.79411764705881, 19.121621049668658 82.58823529411765, 19.57572479650674 83.38235294117648, 21.25281055268575 84.17647058823529, 17.876566565492567 84.97058823529412, 17.47633748759407 85.76470588235294, 10.62295147505238 86.55882352941177, 11.692158703030389 87.3529411764706, 0.0 88.14705882352942, 0.8557071052273407 88.94117647058823, 1.3585848033283778 89.73529411764706, 5.9623943906945716 90.52941176470587, 11.272776179975562 91.32352941176471, 11.272776179975562 92.11764705882354, 9.148507178207826 92.91176470588235, 8.570840602721121 93.70588235294117, 6.946776337879842 94.5, 5.001450930687165 95.29411764705883, 25.413360905380355 96.08823529411765, 22.28028069701136 96.88235294117648, 22.261517016757164 97.67647058823529, 34.55804380072055 98.47058823529412, 39.40384795796285 99.26470588235294, 37.55139950604318 100.05882352941177, 32.48241710955144 100.8529411764706, 34.6666920620067 101.6470588235294, 33.72326925005733 102.44117647058823, 36.679857205679156 103.23529411764706, 39.84021003369641 104.02941176470588, 46.23101146345917 104.82352941176471, 46.44216352436341 105.61764705882352, 41.83116996530996 106.41176470588235, 43.60687107272162 107.20588235294117, 45.64924958364019 108.0, 43.06407783225035 108.79411764705883, 40.54572099809821 109.58823529411765, 37.75835366485004 110.38235294117646, 39.11512702135915 111.17647058823529, 38.119302273151135 111.97058823529413, 37.1069274536165 112.76470588235294, 39.39381971134405 113.55882352941177, 36.821416709421065 114.35294117647058, 36.601528134235664 115.1470588235294, 41.41856081535164 115.94117647058823, 44.06112440664835 116.73529411764706, 36.615397976127085 117.52941176470588, 24.950792873715407 118.32352941176471, 29.911825320160755 119.11764705882352, 28.664410014531683 119.91176470588235, 32.156617871234076 120.70588235294119, 29.408226361519574 121.5, 27.672128751624296 122.29411764705883, 32.52465312992058 123.08823529411764, 33.53190563786911 123.88235294117646, 34.89432474008185 124.6764705882353, 36.13518592603352 125.47058823529412, 35.538202346067926 126.26470588235294, 28.4080900049342 127.05882352941177, 28.230412346134738 127.85294117647058, 27.677504502310285 128.6470588235294, 21.455828048105555 129.44117647058823, 23.287942662358027 130.23529411764707, 28.494153103545113 131.02941176470588, 31.197149235897324 131.8235294117647, 32.98147239979113 132.61764705882354, 32.69482014758294 133.41176470588235, 31.798935085196074 134.2058823529412, 44.01634342522954" fill="none" stroke="#ed5565" stroke-width="1.25"/>

</svg>