<?xml version="1.0" standalone="no"?>
<!DOCTYPE svg PUBLIC "-//W3C//DTD SVG 1.1//EN" "http://www.w3.org/Graphics/SVG/1.1/DTD/svg11.dtd">

<svg width="135" height="50" viewBox="0 0 135 50" 
  xmlns="http://www.w3.org/2000/svg"
  xmlns:xlink="http://www.w3.org/1999/xlink">


<polyline points="0.0, 35.104974322460485 0.7941176470588235, 27.96702160725299 1.588235294117647, 32.94673063748167 2.3823529411764706, 38.48070376405378 3.176470588235294, 35.90118176281966 3.9705882352941178, 27.124787973650164 4.764705882352941, 30.824092637530498 5.5588235294117645, 33.377630811807165 6.352941176470588, 29.035324077995163 7.147058823529411, 27.52163003359613 7.9411764705882355, 30.272253721634467 8.73529411764706, 34.98894902737754 9.529411764705882, 28.845418590164325 10.323529411764707, 32.102697873003926 11.117647058823529, 30.16485025887487 11.911764705882353, 32.089523065069706 12.705882352941176, 31.494599885589132 13.5, 38.67586895494425 14.294117647058822, 31.992446311257254 15.088235294117649, 33.03677717754313 15.882352941176471, 29.911781017019656 16.676470588235293, 31.309148886458843 17.47058823529412, 33.694995662345875 18.26470588235294, 32.12765944487904 19.058823529411764, 31.853730223446124 19.85294117647059, 34.296115855202856 20.647058823529413, 30.207104865840012 21.441176470588236, 32.36165773191196 22.235294117647058, 29.697047507381964 23.029411764705884, 28.112577099860687 23.823529411764707, 30.275040658276197 24.61764705882353, 29.611379371648656 25.41176470588235, 32.100528129445884 26.205882352941178, 31.65801205110792 27.0, 31.039536960637626 27.794117647058822, 34.34198162727792 28.588235294117645, 25.142485570911845 29.38235294117647, 32.067642544588196 30.176470588235297, 34.43829682702028 30.970588235294116, 29.44065449226749 31.764705882352942, 38.445595899945054 32.55882352941177, 28.98233579711398 33.35294117647059, 32.08834356670975 34.14705882352941, 32.60880632057218 34.94117647058824, 41.33259738704872 35.73529411764706, 31.37486579056745 36.52941176470588, 29.04993852000733 37.32352941176471, 28.51959633753659 38.11764705882353, 32.83899101589445 38.91176470588235, 31.633284882299524 39.70588235294118, 32.52117129141221 40.5, 32.64577040252219 41.294117647058826, 31.256700701627494 42.088235294117645, 30.253464395454007 42.88235294117647, 27.452101048179777 43.6764705882353, 34.27380028671666 44.470588235294116, 33.898100082901834 45.264705882352935, 31.869550343780222 46.05882352941177, 38.24137188815119 46.85294117647059, 29.47993603792979 47.64705882352941, 31.471550994538646 48.44117647058824, 37.757267251561345 49.23529411764706, 29.856535111391423 50.029411764705884, 35.4262715736943 50.8235294117647, 31.354064456602476 51.61764705882353, 36.134552705351865 52.411764705882355, 33.04649742739198 53.205882352941174, 29.23376701464991 54.0, 31.79593005416972 54.794117647058826, 27.77547859652471 55.588235294117645, 30.708487226565538 56.38235294117647, 34.365198968738284 57.17647058823529, 27.11385971158405 57.970588235294116, 41.0261757786214 58.76470588235294, 31.574329656174214 59.55882352941176, 10.122220970365694 60.352941176470594, 19.148224630212933 61.14705882352941, 50.0 61.94117647058823, 24.26762542071809 62.73529411764706, 35.1138858772301 63.529411764705884, 38.20229718717893 64.3235294117647, 33.2312589333688 65.11764705882354, 29.961860938682488 65.91176470588235, 29.85965933327789 66.70588235294117, 31.132693889777403 67.5, 34.394643599017 68.29411764705883, 32.40053511711663 69.08823529411764, 30.706910384697967 69.88235294117648, 25.946270229298918 70.6764705882353, 20.643134186392576 71.47058823529412, 38.98557429760619 72.26470588235294, 34.85977440462127 73.05882352941175, 32.692856584686275 73.8529411764706, 30.614954555889508 74.64705882352942, 32.320610123897296 75.44117647058823, 29.83095277820124 76.23529411764706, 32.84376852615088 77.02941176470588, 4.8965592896463574 77.8235294117647, 24.053866325887668 78.61764705882354, 31.160801913341928 79.41176470588236, 4.8759282684055085 80.20588235294117, 27.063366851176045 81.0, 24.142608382385188 81.79411764705881, 25.195279329216337 82.58823529411765, 32.498910911907366 83.38235294117648, 27.18704216034399 84.17647058823529, 36.34033112982605 84.97058823529412, 33.66793431863669 85.76470588235294, 36.32080982087459 86.55882352941177, 29.533219098365304 87.3529411764706, 41.26945947053091 88.14705882352942, 34.76263999557602 88.94117647058823, 30.202320510745334 89.73529411764706, 28.270694266792496 90.52941176470587, 27.102370585410934 91.32352941176471, 32.13326794945036 92.11764705882354, 25.04687452600895 92.91176470588235, 27.68891808563661 93.70588235294117, 38.7871140986973 94.5, 28.60934249767675 95.29411764705883, 39.96092543182439 96.08823529411765, 28.345354763147263 96.88235294117648, 30.09123089703231 97.67647058823529, 0.0 98.47058823529412, 39.85028271272242 99.26470588235294, 30.067637994727402 100.05882352941177, 32.06190080183959 100.8529411764706, 30.850019979999253 101.6470588235294, 38.24432787651084 102.44117647058823, 28.929223722875392 103.23529411764706, 29.33772983270509 104.02941176470588, 36.57364643166073 104.82352941176471, 32.63879002628657 105.61764705882352, 25.347489452032622 106.41176470588235, 27.229561429178624 107.20588235294117, 26.19539014524798 108.0, 30.979973127700745 108.79411764705883, 36.25850497709951 109.58823529411765, 31.640704099074263 110.38235294117646, 31.13392219755871 111.17647058823529, 27.786275840670925 111.97058823529413, 32.59966614116872 112.76470588235294, 29.419865162423843 113.55882352941177, 26.780904423026954 114.35294117647058, 31.810957820500814 115.1470588235294, 31.162426542177847 115.94117647058823, 30.520669224378405 116.73529411764706, 25.144531122167646 117.52941176470588, 23.411282843105102 118.32352941176471, 40.181705720383725 119.11764705882352, 29.52670714030907 119.91176470588235, 32.71537277359995 120.70588235294119, 29.823033697662364 121.5, 34.63138399243878 122.29411764705883, 20.934992799545487 123.08823529411764, 31.599562410922942 123.88235294117646, 30.645157371948823 124.6764705882353, 32.94261608818118 125.47058823529412, 25.601384874426596 126.26470588235294, 22.8352344966384 127.05882352941177, 35.001701444317284 127.85294117647058, 33.662913219909896 128.6470588235294, 32.99173656153942 129.44117647058823, 30.338640512790725 130.23529411764707, 31.2676684592401 131.02941176470588, 30.645847684313022 131.8235294117647, 30.224909126631538 132.61764705882354, 31.52692470814357 133.41176470588235, 27.04002993017624 134.2058823529412, 30.349743435746586" fill="none" stroke="#57bd0f" stroke-width="1.25"/>

</svg>