<?xml version="1.0" standalone="no"?>
<!DOCTYPE svg PUBLIC "-//W3C//DTD SVG 1.1//EN" "http://www.w3.org/Graphics/SVG/1.1/DTD/svg11.dtd">

<svg width="135" height="50" viewBox="0 0 135 50" 
  xmlns="http://www.w3.org/2000/svg"
  xmlns:xlink="http://www.w3.org/1999/xlink">


<polyline points="0.0, 44.31375317656012 0.7941176470588235, 45.046800561650606 1.588235294117647, 44.26506975368158 2.3823529411764706, 45.60319012223882 3.176470588235294, 47.30694636979991 3.9705882352941178, 47.05401053593023 4.764705882352941, 48.09520281161119 5.5588235294117645, 46.64733848027844 6.352941176470588, 47.41251301452078 7.147058823529411, 47.210885762620904 7.9411764705882355, 47.022284679986356 8.73529411764706, 46.67166240947863 9.529411764705882, 47.53341281073414 10.323529411764707, 48.36793330985689 11.117647058823529, 47.460716344643956 11.911764705882353, 47.924344662190855 12.705882352941176, 47.0395749076229 13.5, 46.84904991636263 14.294117647058822, 47.09146669578204 15.088235294117649, 47.143672849635635 15.882352941176471, 46.66550905409517 16.676470588235293, 47.18824301874674 17.47058823529412, 46.16178251877316 18.26470588235294, 46.6021835513381 19.058823529411764, 45.891122171024186 19.85294117647059, 45.65317934240748 20.647058823529413, 45.6123584832413 21.441176470588236, 44.3285866389556 22.235294117647058, 44.77734011275902 23.029411764705884, 44.35233332671893 23.823529411764707, 43.51483636901673 24.61764705882353, 44.63390729213009 25.41176470588235, 44.05004014094894 26.205882352941178, 46.68468377235405 27.0, 47.85490890206069 27.794117647058822, 47.84037330871873 28.588235294117645, 49.251179809021714 29.38235294117647, 48.62882591775477 30.176470588235297, 47.717236197692806 30.970588235294116, 47.52083094018742 31.764705882352942, 48.101035607290726 32.55882352941177, 48.73913145117863 33.35294117647059, 47.546731479960144 34.14705882352941, 48.04002504899429 34.94117647058824, 47.86777635925936 35.73529411764706, 48.59833635654078 36.52941176470588, 48.34240979396616 37.32352941176471, 48.111548807350566 38.11764705882353, 47.986820803240505 38.91176470588235, 46.58260005447141 39.70588235294118, 47.21894794024067 40.5, 49.249381462450884 41.294117647058826, 49.0107574684111 42.088235294117645, 50.0 42.88235294117647, 46.90958465683044 43.6764705882353, 46.11925849730104 44.470588235294116, 48.52477580261712 45.264705882352935, 46.486110177481024 46.05882352941177, 46.72203124121008 46.85294117647059, 45.79344741599375 47.64705882352941, 45.49611431619668 48.44117647058824, 44.21810610304831 49.23529411764706, 45.81179626823483 50.029411764705884, 45.141940274130285 50.8235294117647, 46.19883422290295 51.61764705882353, 46.652631555872084 52.411764705882355, 47.05760850069052 53.205882352941174, 47.00731896473407 54.0, 46.80035005205096 54.794117647058826, 47.82730677867318 55.588235294117645, 46.725641023795774 56.38235294117647, 46.64405409523551 57.17647058823529, 46.75526629974575 57.970588235294116, 46.16052936947279 58.76470588235294, 47.16615615903942 59.55882352941176, 49.222571540231606 60.352941176470594, 46.012341542106725 61.14705882352941, 43.1632168488535 61.94117647058823, 40.390910653921075 62.73529411764706, 33.692063497460445 63.529411764705884, 34.81073420234898 64.3235294117647, 33.75156346793956 65.11764705882354, 35.593304107626814 65.91176470588235, 33.21502138854646 66.70588235294117, 31.626613511218054 67.5, 30.043498713028782 68.29411764705883, 28.07255777559398 69.08823529411764, 27.557381451139502 69.88235294117648, 27.096917925888764 70.6764705882353, 26.19256928306771 71.47058823529412, 24.839371612762346 72.26470588235294, 27.096734987459882 73.05882352941175, 26.812464967772115 73.8529411764706, 27.491204150066963 74.64705882352942, 26.372977751946493 75.44117647058823, 26.633755440702455 76.23529411764706, 22.695995641422474 77.02941176470588, 25.623013891472695 77.8235294117647, 20.638002332697283 78.61764705882354, 20.143242171845078 79.41176470588236, 17.534152390580925 80.20588235294117, 9.70727159117495 81.0, 12.705287843800669 81.79411764705881, 10.928271093411116 82.58823529411765, 10.054750379072457 83.38235294117648, 10.513452442326045 84.17647058823529, 10.785866459812352 84.97058823529412, 8.919036855159705 85.76470588235294, 7.242095943203651 86.55882352941177, 2.3342073050896084 87.3529411764706, 1.48236024296046 88.14705882352942, 0.0 88.94117647058823, 1.589568790509836 89.73529411764706, 1.336770563822438 90.52941176470587, 2.9045241943613425 91.32352941176471, 3.2571789969770624 92.11764705882354, 3.2571789969770624 92.91176470588235, 2.7936178600000443 93.70588235294117, 3.800803612501269 94.5, 3.7834772860362764 95.29411764705883, 3.2812447898161734 96.08823529411765, 8.421589089415917 96.88235294117648, 6.247809304275238 97.67647058823529, 5.4046462284174455 98.47058823529412, 9.50353312318275 99.26470588235294, 11.799235104697733 100.05882352941177, 9.556097216500445 100.8529411764706, 8.07353867393194 101.6470588235294, 9.347744518864124 102.44117647058823, 8.62351638157228 103.23529411764706, 8.700839995787081 104.02941176470588, 10.462152742435302 104.82352941176471, 11.258327485761619 105.61764705882352, 11.771811835365034 106.41176470588235, 11.011379695863322 107.20588235294117, 10.25992841612057 108.0, 10.94581275726397 108.79411764705883, 9.950572024994681 109.58823529411765, 10.19282769305616 110.38235294117646, 9.687289071429655 111.17647058823529, 10.346500042541388 111.97058823529413, 10.075805326434233 112.76470588235294, 9.089158876671945 113.55882352941177, 9.966493080908487 114.35294117647058, 10.3946638753709 115.1470588235294, 10.689631711805326 115.94117647058823, 11.765388021707833 116.73529411764706, 12.876941281730527 117.52941176470588, 9.747966157629936 118.32352941176471, 3.7282791470032857 119.11764705882352, 2.90638802654885 119.91176470588235, 0.7784627554678963 120.70588235294119, 3.6512164033561523 121.5, 5.1365518596216 122.29411764705883, 4.564597863835111 123.08823529411764, 8.364700358819706 123.88235294117646, 7.872060882880186 124.6764705882353, 7.618224234352244 125.47058823529412, 9.835432829658822 126.26470588235294, 8.504035126189043 127.05882352941177, 6.214571238878866 127.85294117647058, 6.70547840328371 128.6470588235294, 7.0695846368662 129.44117647058823, 6.70724812279086 130.23529411764707, 7.776856731328295 131.02941176470588, 9.331482260554818 131.8235294117647, 8.639671161589774 132.61764705882354, 8.19560255103335 133.41176470588235, 7.170426387440459 134.2058823529412, 7.773036161089861" fill="none" stroke="#57bd0f" stroke-width="1.25"/>

</svg>