<?xml version="1.0" standalone="no"?>
<!DOCTYPE svg PUBLIC "-//W3C//DTD SVG 1.1//EN" "http://www.w3.org/Graphics/SVG/1.1/DTD/svg11.dtd">

<svg width="135" height="50" viewBox="0 0 135 50" 
  xmlns="http://www.w3.org/2000/svg"
  xmlns:xlink="http://www.w3.org/1999/xlink">


<polyline points="0.0, 48.12156746802667 0.7988165680473372, 48.32509378805868 1.5976331360946745, 47.676453434949835 2.396449704142012, 48.44670956450758 3.195266272189349, 49.211182034011955 3.994082840236686, 48.799058699865 4.792899408284024, 48.93170529255514 5.591715976331361, 48.250485477812056 6.390532544378698, 48.379060490182006 7.189349112426036, 48.04947871169474 7.988165680473372, 48.08486253490827 8.78698224852071, 47.7500222650873 9.585798816568047, 48.26929610329117 10.384615384615385, 49.13588089441922 11.183431952662723, 48.5156278491238 11.982248520710058, 48.63077310151655 12.781065088757396, 47.92889624577969 13.579881656804734, 48.01976283081142 14.378698224852071, 47.77976496483622 15.177514792899409, 47.87073253260255 15.976331360946745, 47.27869832785389 16.775147928994084, 48.34993551108781 17.57396449704142, 48.14027181250551 18.37278106508876, 48.51655188784487 19.171597633136095, 48.35757345069047 19.970414201183434, 48.13370017100983 20.76923076923077, 48.324577938589805 21.56804733727811, 47.84188641498448 22.366863905325445, 47.765506765591276 23.16568047337278, 47.406454303698006 23.964497041420117, 47.33679651880409 24.763313609467456, 47.20296388995875 25.562130177514792, 46.79955754995779 26.36094674556213, 48.64116272014907 27.159763313609467, 49.05436809588393 27.958579881656807, 48.95685385641224 28.757396449704142, 50.0 29.55621301775148, 49.56197306425481 30.355029585798817, 49.131195018448494 31.153846153846157, 48.917905922110755 31.95266272189349, 49.2418881739214 32.751479289940825, 49.37654300871812 33.55029585798817, 48.70591143923605 34.349112426035504, 49.10689755338096 35.14792899408284, 49.03083144494174 35.94674556213018, 49.29543845758548 36.74556213017752, 49.47137143875099 37.54437869822485, 49.31681911819561 38.34319526627219, 49.11030934605683 39.142011834319526, 48.06724134297544 39.94082840236687, 48.028241560959785 40.7396449704142, 49.1536143568876 41.53846153846154, 48.92988341433933 42.337278106508876, 48.412330368702996 43.13609467455622, 46.7176638944145 43.93491124260355, 44.95494113615444 44.73372781065089, 46.77399719671069 45.532544378698226, 45.6098617606539 46.33136094674556, 45.965556919252364 47.1301775147929, 45.614891385181856 47.928994082840234, 45.40103851255555 48.72781065088758, 43.68484833483334 49.52662721893491, 44.3776222501395 50.32544378698225, 44.0502979289565 51.124260355029584, 44.23653560139534 51.92307692307693, 43.73491190515505 52.72189349112426, 44.51240553117513 53.5207100591716, 45.26389179779853 54.319526627218934, 44.93796202050168 55.11834319526627, 45.7419972291328 55.91715976331361, 45.299104879850475 56.71597633136094, 45.45383103855493 57.514792899408285, 45.053850734644044 58.31360946745562, 44.524122146271 59.11242603550296, 44.39633569099596 59.91124260355029, 45.61222335544877 60.710059171597635, 42.822654638464556 61.50887573964497, 40.18329843407636 62.307692307692314, 36.667401750238795 63.10650887573964, 32.422690424200376 63.90532544378698, 33.394043110067614 64.70414201183432, 31.858711658611377 65.50295857988165, 31.538116255985077 66.30177514792899, 30.48671857479952 67.10059171597634, 29.376430164049843 67.89940828402366, 28.87465411518675 68.69822485207101, 25.02018720289699 69.49704142011834, 24.91545464945613 70.29585798816568, 25.47661092342451 71.09467455621302, 24.776748391985812 71.89349112426036, 23.203549599539095 72.6923076923077, 24.635062240484825 73.49112426035504, 23.894751441210378 74.28994082840237, 24.39283812498555 75.0887573964497, 23.26650453832584 75.88757396449704, 23.720159580491845 76.68639053254438, 22.562664521022025 77.48520710059172, 23.31473237348862 78.28402366863905, 18.81902829044107 79.0828402366864, 18.361918403952853 79.88165680473374, 13.654266167282014 80.68047337278107, 8.296048925147023 81.4792899408284, 11.880564154610116 82.27810650887574, 10.52784363870762 83.07692307692308, 10.891999372753341 83.87573964497041, 12.556976654754676 84.67455621301775, 13.051955153442337 85.4733727810651, 12.007311771895921 86.27218934911244, 11.164742231046333 87.07100591715975, 10.760634187652148 87.8698224852071, 10.61024949591566 88.66863905325444, 8.563045440532143 89.46745562130178, 9.629960701365206 90.26627218934911, 9.52312741307532 91.06508875739645, 9.33311153399047 91.8639053254438, 10.973854791672732 92.66272189349112, 11.087809833496328 93.46153846153845, 11.200927377947139 94.2603550295858, 11.057325313852608 95.05917159763314, 9.950130300256584 95.85798816568047, 13.003286620184177 96.65680473372781, 11.096313688200903 97.45562130177515, 9.505900447052511 98.2544378698225, 13.003634140847694 99.05325443786982, 14.48701236192447 99.85207100591715, 12.699973995855988 100.6508875739645, 10.664852799947857 101.44970414201183, 11.514602218513756 102.24852071005917, 10.489889058273215 103.04733727810651, 10.55758697006769 103.84615384615385, 11.883335246606995 104.64497041420118, 12.311931193238664 105.44378698224853, 12.876699712862944 106.24260355029585, 11.96426089881555 107.0414201183432, 12.122315007329039 107.84023668639053, 12.51835845057174 108.63905325443787, 12.03544190314789 109.43786982248521, 12.209784013589669 110.23668639053254, 11.74050715637022 111.03550295857988, 12.141356053942301 111.83431952662723, 12.624200840395202 112.63313609467457, 11.936795578088635 113.43195266272188, 12.166855311058415 114.23076923076923, 11.149045860509938 115.02958579881657, 11.224818740959709 115.82840236686391, 10.976858221241429 116.62721893491124, 12.0802315232183 117.42603550295858, 9.446298604809686 118.22485207100593, 2.086376253325256 119.02366863905324, 2.1430657510783053 119.82248520710058, 0.0 120.62130177514793, 2.6284667683007696 121.42011834319527, 3.8341933929842877 122.2189349112426, 2.8444941018455254 123.01775147928994, 4.834164676937765 123.81656804733728, 5.502253692062389 124.61538461538463, 5.7291930271241105 125.41420118343194, 7.083546719859762 126.21301775147928, 6.23335990322028 127.01183431952663, 4.183357184131945 127.81065088757396, 4.511521835294232 128.60946745562129, 4.745076180191737 129.40828402366864, 4.790050185789547 130.20710059171597, 4.747596549868304 131.0059171597633, 5.6657680858963815 131.80473372781066, 6.095334242473453 132.60355029585799, 5.735890447625455 133.40236686390534, 4.543621559764661 134.20118343195267, 5.160234078715664" fill="none" stroke="#57bd0f" stroke-width="1.25"/>

</svg>